<?xml version="1.0" encoding="UTF-8" standalone="no"?>
<svg
   width="50.4"
   height="35"
   viewBox="0 0 174.40541 121.08108"
   version="1.1"
   id="svg5"
   inkscape:version="1.2.1 (9c6d41e410, 2022-07-14)"
   sodipodi:docname="new logo light v2 cropped.svg"
   xmlns:inkscape="http://www.inkscape.org/namespaces/inkscape"
   xmlns:sodipodi="http://sodipodi.sourceforge.net/DTD/sodipodi-0.dtd"
   xmlns="http://www.w3.org/2000/svg"
   xmlns:svg="http://www.w3.org/2000/svg">
  <sodipodi:namedview
     id="namedview7"
     pagecolor="#ffffff"
     bordercolor="#000000"
     borderopacity="0.25"
     inkscape:showpageshadow="2"
     inkscape:pageopacity="0.0"
     inkscape:pagecheckerboard="0"
     inkscape:deskcolor="#d1d1d1"
     inkscape:document-units="mm"
     showgrid="false"
     inkscape:zoom="2.0510461"
     inkscape:cx="136.27192"
     inkscape:cy="63.138513"
     inkscape:window-width="1920"
     inkscape:window-height="1001"
     inkscape:window-x="-9"
     inkscape:window-y="-9"
     inkscape:window-maximized="1"
     inkscape:current-layer="layer3" />
  <defs
     id="defs2">
    <inkscape:perspective
       sodipodi:type="inkscape:persp3d"
       inkscape:vp_x="0 : -27.418923 : 1"
       inkscape:vp_y="0 : 1000 : 0"
       inkscape:vp_z="210 : -27.418923 : 1"
       inkscape:persp3d-origin="105 : -76.918924 : 1"
       id="perspective7209" />
    <clipPath
       clipPathUnits="userSpaceOnUse"
       id="clipPath20072">
      <rect
         style="fill:#f4f4f9"
         id="rect20074"
         width="187.70909"
         height="139.92859"
         x="21.452467"
         y="86.297424" />
    </clipPath>
    <clipPath
       clipPathUnits="userSpaceOnUse"
       id="clipPath20076">
      <rect
         style="fill:#f4f4f9"
         id="rect20078"
         width="187.70909"
         height="139.92859"
         x="21.452467"
         y="86.297424" />
    </clipPath>
    <clipPath
       clipPathUnits="userSpaceOnUse"
       id="clipPath20080">
      <rect
         style="fill:#f4f4f9"
         id="rect20082"
         width="187.70909"
         height="139.92859"
         x="21.452467"
         y="86.297424" />
    </clipPath>
    <clipPath
       clipPathUnits="userSpaceOnUse"
       id="clipPath20084">
      <rect
         style="fill:#f4f4f9"
         id="rect20086"
         width="187.70909"
         height="139.92859"
         x="21.452467"
         y="86.297424" />
    </clipPath>
    <clipPath
       clipPathUnits="userSpaceOnUse"
       id="clipPath20158">
      <rect
         style="opacity:0.5;fill:#000080;stroke-width:1.01029"
         id="rect20160"
         width="191.12198"
         height="144.3166"
         x="19.502243"
         y="85.322311" />
    </clipPath>
    <clipPath
       clipPathUnits="userSpaceOnUse"
       id="clipPath20162">
      <rect
         style="opacity:0.5;fill:#000080;stroke-width:1.01029"
         id="rect20164"
         width="191.12198"
         height="144.3166"
         x="19.502243"
         y="85.322311" />
    </clipPath>
    <clipPath
       clipPathUnits="userSpaceOnUse"
       id="clipPath20166">
      <rect
         style="opacity:0.5;fill:#000080;stroke-width:1.01029"
         id="rect20168"
         width="191.12198"
         height="144.3166"
         x="19.502243"
         y="85.322311" />
    </clipPath>
    <clipPath
       clipPathUnits="userSpaceOnUse"
       id="clipPath20170">
      <rect
         style="opacity:0.5;fill:#000080;stroke-width:1.01029"
         id="rect20172"
         width="191.12198"
         height="144.3166"
         x="19.502243"
         y="85.322311" />
    </clipPath>
    <clipPath
       clipPathUnits="userSpaceOnUse"
       id="clipPath20174">
      <rect
         style="opacity:0.5;fill:#000080;stroke-width:1.01029"
         id="rect20176"
         width="191.12198"
         height="144.3166"
         x="19.502243"
         y="85.322311" />
    </clipPath>
    <clipPath
       clipPathUnits="userSpaceOnUse"
       id="clipPath20178">
      <rect
         style="opacity:0.5;fill:#000080;stroke-width:1.01029"
         id="rect20180"
         width="191.12198"
         height="144.3166"
         x="19.502243"
         y="85.322311" />
    </clipPath>
  </defs>
  <g
     inkscape:groupmode="layer"
     id="layer4"
     inkscape:label="Layer 4"
     transform="translate(-28.094587,-95.229729)" />
  <g
     inkscape:groupmode="layer"
     id="layer2"
     inkscape:label="Layer 2"
     transform="translate(-28.094587,-95.229729)">
    <g
       inkscape:label="Layer 1"
       inkscape:groupmode="layer"
       id="layer1" />
    <ellipse
       style="fill:#8c86aa;fill-opacity:1;stroke-width:0.264583"
       id="path4204"
       cx="107.63514"
       cy="154.15541"
       rx="9.1216221"
       ry="10.033784"
       clip-path="url(#clipPath20178)" />
  </g>
  <g
     inkscape:groupmode="layer"
     id="layer3"
     inkscape:label="Layer 3"
     transform="translate(-28.094587,-95.229729)">
    <path
       id="path1970"
       style="fill:#8c86aa;fill-opacity:1;stroke-width:0.167344"
       d="m 107.20476,177.02311 a 34.35607,24.219863 0.83160131 0 0 43.08839,-15.51044 34.35607,24.219863 0.83160131 0 0 1.43471,-9.40232 28.672684,20.494794 0.04863763 0 1 -0.65344,1.74791 28.672684,20.494794 0.04863763 0 1 -36.05291,13.25063 28.672684,20.494794 0.04863763 0 1 -18.558859,-25.77777 28.672684,20.494794 0.04863763 0 1 10.909309,-10.54205 34.35607,24.219863 0.83160131 0 0 -22.612952,15.69101 34.35607,24.219863 0.83160131 0 0 22.445792,30.54304 z"
       inkscape:transform-center-x="-15.02818"
       inkscape:transform-center-y="-16.483537"
       clip-path="url(#clipPath20174)" />
    <path
       id="path1871"
       style="fill:#93e1d8;fill-opacity:1;stroke-width:0.259524"
       d="m 190.20776,165.73242 c 12.57573,-20.69427 6.03946,-44.71958 -32.14465,-48.81714 -6.51762,-1.69616 -22.86511,1.04189 -29.75752,1.28521 1.26993,0.23979 2.52556,0.51949 3.76324,0.83829 23.17671,6.05819 49.94863,16.9746 41.9524,33.48495 -7.42498,22.21641 -47.37057,35.97942 -70.90941,26.3043 -9.191035,-2.40935 -17.083207,-6.90218 -22.463502,-12.78791 4.555491,12.09954 16.971259,21.85684 33.221602,26.10819 29.18362,10.15733 62.61948,-3.84133 76.33784,-26.41589 z"
       sodipodi:nodetypes="scccccccs"
       inkscape:transform-center-x="-30.671631"
       inkscape:transform-center-y="-18.005378"
       clip-path="url(#clipPath20170)" />
    <ellipse
       style="fill:#93e1d8;fill-opacity:1;stroke-width:0.244414"
       id="path4208"
       cx="187.54054"
       cy="111.10135"
       rx="14.959459"
       ry="15.87162"
       clip-path="url(#clipPath20166)" />
    <ellipse
       style="fill:#4A716C;fill-opacity:1;stroke-width:0.306723"
       id="path4208-1"
       cx="47.249992"
       cy="117.12162"
       rx="19.155405"
       ry="19.520269"
       clip-path="url(#clipPath20162)" />
    <path
       id="path7937"
       style="fill:#4A716C;fill-opacity:1;stroke-width:0.314843"
       d="m 52.549118,179.66544 c -15.04137,-25.46412 -7.22357,-55.02706 38.44705,-60.06908 7.7955,-2.08711 27.348142,1.28204 35.591892,1.58145 -1.51891,0.29506 -3.02072,0.63923 -4.50106,1.0315 -27.720832,7.45456 -59.741752,20.8871 -50.177752,41.20295 8.88075,27.33711 56.658222,44.27237 84.812182,32.36722 10.99305,-2.96469 20.43259,-8.49307 26.86777,-15.73542 -5.44866,14.88838 -20.29871,26.89466 -39.73516,32.12591 -34.90546,12.49852 -74.896882,-4.72672 -91.304922,-32.50453 z"
       sodipodi:nodetypes="scccccccs"
       inkscape:transform-center-x="36.685227"
       inkscape:transform-center-y="-22.155464"
       clip-path="url(#clipPath20158)" />
  </g>
</svg>
