<?xml version="1.0" encoding="UTF-8"?>
<svg xmlns="http://www.w3.org/2000/svg" version="1.1" viewBox="0 0 96 72">
  <defs>
    <style>
      .cls-1 {
        fill: #0057b7;
      }

      .cls-2 {
        fill: #fff;
      }
    </style>
  </defs>
    <g>
    <g id="Layer_1">
      <path class="cls-1" d="M7.83,8.07h80.35c.98,0,1.78.8,1.78,1.78v52.3c0,.98-.8,1.78-1.78,1.78H7.83c-.98,0-1.78-.8-1.78-1.78V9.85c0-.98.8-1.78,1.78-1.78Z"/>
      <path class="cls-2" d="M88.17,65.06H7.83c-1.61,0-2.91-1.31-2.91-2.91V9.85c0-1.61,1.31-2.91,2.91-2.91h80.35c1.61,0,2.91,1.31,2.91,2.91v52.3c0,1.61-1.31,2.91-2.91,2.91ZM7.83,8.07c-.98,0-1.78.8-1.78,1.78v52.3c0,.98.8,1.78,1.78,1.78h80.35c.98,0,1.78-.8,1.78-1.78V9.85c0-.98-.8-1.78-1.78-1.78H7.83Z"/>
      <g>
        <path class="cls-2" d="M62.04,32c.22-1.18-.12-2.35-.97-3.37-1.31-1.58-3.67-2.59-6-2.59-.04,0-.21,0-.46,0-1.51.01-6.09.04-8.36,0-.02,0-.05,0-.07.03-.02.02-.03.04-.03.07v19.59c0,.05.03.09.09.09h3.76s.05,0,.07-.02c.02-.02.03-.04.03-.07l.02-17.63s0-.47.49-.64c1.19-.41,3.74-.58,5.53.7,1.18.84,1.77,2.14,1.76,3.84,0,1.33-.48,2.42-1.42,3.22-1.39,1.19-3.46,1.45-4.27,1.33-.03,0-.06,0-.08.02-.02.02-.03.04-.03.07v.66s.04.09.09.09c1.83.25,8.85.07,9.86-5.39Z"/>
        <path class="cls-2" d="M68.21,25.78s-.05-.05-.08-.05h0s-.07.02-.08.05l-1.93,3.45s-.02.06,0,.08l3.25,7.61h-7.87s-.06.02-.08.05l-5.12,8.67s-.02.07,0,.09.05.05.08.05h3.41s.07-.02.09-.06l3.46-7.69h6.52l3.65,7.65s.05.05.08.05h4.36s.06-.02.08-.04c.02-.03.02-.06,0-.09l-9.8-19.82Z"/>
        <path class="cls-2" d="M41.23,26.05s-.06.01-.08.04l-4.45,6.17-2.82-6.15s-.05-.06-.09-.06h-4.65s-.06.02-.08.04c-.02.03-.02.06,0,.09l4.72,10.13-3.82,5.28-6.59-15.49s-.05-.06-.09-.06h-4.93s-.06.02-.08.04c-.02.03-.02.06,0,.09l9.88,19.94s.04.05.08.05c.03,0,.06,0,.08-.04l6.28-7.94,4.12,8s.04.05.08.05c0,0,0,0,0,0,.03,0,.06-.01.08-.04l2.25-2.92s.02-.06.01-.09l-3.62-8.71,6.41-8.3s.03-.07.01-.1c-.02-.03-.05-.05-.08-.05h-2.63Z"/>
      </g>
    </g>
  </g>
</svg>